<svg xmlns="http://www.w3.org/2000/svg" width="568" height="712" viewBox="0 0 568 712">
<defs>
  <pattern id="grain" x="0" y="0" width="4" height="30" patternUnits="userSpaceOnUse">
    <line x1="0" y1="0" x2="0" y2="30" stroke="#2a2218" stroke-width="1" opacity="0.5"/>
    <line x1="2" y1="0" x2="2" y2="30" stroke="#2a2218" stroke-width="0.5" opacity="0.3"/>
  </pattern>
</defs>
<rect width="568" height="712" fill="#0f0f0f" rx="6"/>
<rect x="0" y="0" width="568" height="60" fill="#1a1a1a" rx="6"/>
<rect x="0" y="58" width="568" height="2" fill="#e8c547"/>
<text x="20" y="44" font-family="Arial Black,sans-serif" font-size="26" fill="#e8c547" letter-spacing="4">KERF</text>
<text x="118" y="44" font-family="IBM Plex Mono,monospace" font-size="11" fill="#444">|  Sheet Goods &amp; Board Optimizer</text>
<rect x="0" y="62" width="568" height="22" fill="#1e1e1e"/>
<text x="20" y="77" font-family="IBM Plex Mono,monospace" font-size="10" fill="#555">Parts: <tspan fill="#e8c547">13</tspan>   Placed: <tspan fill="#52c97a">13</tspan>   Unplaced: <tspan fill="#52c97a">0</tspan>   Boards: <tspan fill="#e8c547">2</tspan>   Avg util: <tspan fill="#e8c547">75.6%</tspan></text>
<text x="28" y="110.0" font-family="IBM Plex Mono,monospace" font-size="11" fill="#e8c547" font-weight="600">Board 1: Plywood 4×8 #1</text>
<text x="328" y="110.0" font-family="IBM Plex Mono,monospace" font-size="10" fill="#666">96" × 48"</text>
<rect x="418" y="98.0" width="92" height="16" fill="#1a1a1a" rx="8" stroke="#52c97a" stroke-width="1"/>
<text x="464" y="110.0" text-anchor="middle" font-family="IBM Plex Mono,monospace" font-size="9" fill="#52c97a">91.4% utilized</text>
<rect x="28" y="122.0" width="480.0" height="240.0" fill="#1e1608" rx="2"/>
<rect x="28" y="122.0" width="480.0" height="240.0" fill="url(#grain)" rx="2"/>
<rect x="28" y="122.0" width="480.0" height="240.0" fill="none" stroke="#3a2e1a" stroke-width="1" rx="2"/>
<rect x="29.00" y="123.00" width="358.00" height="178.00" fill="#e0525222" stroke="#e05252" stroke-width="1.5" rx="2"/>
<rect x="31.00" y="125.00" width="22.00" height="13" fill="#e0525233" rx="2"/>
<text x="34.00" y="135.00" font-family="IBM Plex Mono,monospace" font-size="9" fill="#e05252" font-weight="700">#1</text>
<text x="208.00" y="207.00" text-anchor="middle" dominant-baseline="middle" font-family="IBM Plex Mono,monospace" font-size="11.0" fill="#e05252" font-weight="500">Back Panel</text>
<text x="208.00" y="221.00" text-anchor="middle" dominant-baseline="middle" font-family="IBM Plex Mono,monospace" font-size="9.0" fill="#e0525299">72"×36"</text>
<rect x="29.00" y="303.62" width="358.00" height="54.25" fill="#4a9eff22" stroke="#4a9eff" stroke-width="1.5" rx="2"/>
<rect x="31.00" y="305.62" width="22.00" height="13" fill="#4a9eff33" rx="2"/>
<text x="34.00" y="315.62" font-family="IBM Plex Mono,monospace" font-size="9" fill="#4a9eff" font-weight="700">#2</text>
<text x="208.00" y="325.75" text-anchor="middle" dominant-baseline="middle" font-family="IBM Plex Mono,monospace" font-size="11.0" fill="#4a9eff" font-weight="500">Side Panel</text>
<text x="208.00" y="339.75" text-anchor="middle" dominant-baseline="middle" font-family="IBM Plex Mono,monospace" font-size="9.0" fill="#4a9eff99">72"×11.25"</text>
<rect x="389.62" y="123.00" width="54.25" height="178.00" fill="#e8c54722" stroke="#e8c547" stroke-width="1.5" rx="2"/>
<rect x="391.62" y="125.00" width="22.00" height="13" fill="#e8c54733" rx="2"/>
<text x="394.62" y="135.00" font-family="IBM Plex Mono,monospace" font-size="9" fill="#e8c547" font-weight="700">#3</text>
<text x="416.75" y="207.00" text-anchor="middle" dominant-baseline="middle" font-family="IBM Plex Mono,monospace" font-size="11.0" fill="#e8c547" font-weight="500">Top/Bottom</text>
<text x="416.75" y="221.00" text-anchor="middle" dominant-baseline="middle" font-family="IBM Plex Mono,monospace" font-size="9.0" fill="#e8c54799">11.25"×36"</text>
<text x="440.88" y="132.00" text-anchor="end" font-family="IBM Plex Mono,monospace" font-size="8" fill="#e8c54788">↺</text>
<rect x="446.50" y="123.00" width="54.25" height="178.00" fill="#e8c54722" stroke="#e8c547" stroke-width="1.5" rx="2"/>
<rect x="448.50" y="125.00" width="22.00" height="13" fill="#e8c54733" rx="2"/>
<text x="451.50" y="135.00" font-family="IBM Plex Mono,monospace" font-size="9" fill="#e8c547" font-weight="700">#4</text>
<text x="473.62" y="207.00" text-anchor="middle" dominant-baseline="middle" font-family="IBM Plex Mono,monospace" font-size="11.0" fill="#e8c547" font-weight="500">Top/Bottom</text>
<text x="473.62" y="221.00" text-anchor="middle" dominant-baseline="middle" font-family="IBM Plex Mono,monospace" font-size="9.0" fill="#e8c54799">11.25"×36"</text>
<text x="497.75" y="132.00" text-anchor="end" font-family="IBM Plex Mono,monospace" font-size="8" fill="#e8c54788">↺</text>
<text x="268.0" y="377.0" text-anchor="middle" font-family="IBM Plex Mono,monospace" font-size="9" fill="#555">96"</text>
<text x="522.0" y="242.0" text-anchor="middle" dominant-baseline="middle" font-family="IBM Plex Mono,monospace" font-size="9" fill="#555" transform="rotate(90 522.0 242.0)">48"</text>
<text x="28" y="436.0" font-family="IBM Plex Mono,monospace" font-size="11" fill="#e8c547" font-weight="600">Board 2: Plywood 4×8 #2</text>
<text x="328" y="436.0" font-family="IBM Plex Mono,monospace" font-size="10" fill="#666">96" × 48"</text>
<rect x="418" y="424.0" width="92" height="16" fill="#1a1a1a" rx="8" stroke="#e8c547" stroke-width="1"/>
<text x="464" y="436.0" text-anchor="middle" font-family="IBM Plex Mono,monospace" font-size="9" fill="#e8c547">59.7% utilized</text>
<rect x="28" y="448.0" width="480.0" height="240.0" fill="#1e1608" rx="2"/>
<rect x="28" y="448.0" width="480.0" height="240.0" fill="url(#grain)" rx="2"/>
<rect x="28" y="448.0" width="480.0" height="240.0" fill="none" stroke="#3a2e1a" stroke-width="1" rx="2"/>
<rect x="29.00" y="449.00" width="10.50" height="178.00" fill="#b06af022" stroke="#b06af0" stroke-width="1.5" rx="2"/>
<text x="36.50" y="458.00" text-anchor="end" font-family="IBM Plex Mono,monospace" font-size="8" fill="#b06af088">↺</text>
<rect x="29.00" y="629.62" width="358.00" height="54.25" fill="#4a9eff22" stroke="#4a9eff" stroke-width="1.5" rx="2"/>
<rect x="31.00" y="631.62" width="22.00" height="13" fill="#4a9eff33" rx="2"/>
<text x="34.00" y="641.62" font-family="IBM Plex Mono,monospace" font-size="9" fill="#4a9eff" font-weight="700">#6</text>
<text x="208.00" y="651.75" text-anchor="middle" dominant-baseline="middle" font-family="IBM Plex Mono,monospace" font-size="11.0" fill="#4a9eff" font-weight="500">Side Panel</text>
<text x="208.00" y="665.75" text-anchor="middle" dominant-baseline="middle" font-family="IBM Plex Mono,monospace" font-size="9.0" fill="#4a9eff99">72"×11.25"</text>
<rect x="42.12" y="449.00" width="10.50" height="178.00" fill="#b06af022" stroke="#b06af0" stroke-width="1.5" rx="2"/>
<text x="49.62" y="458.00" text-anchor="end" font-family="IBM Plex Mono,monospace" font-size="8" fill="#b06af088">↺</text>
<rect x="55.25" y="449.00" width="10.50" height="178.00" fill="#b06af022" stroke="#b06af0" stroke-width="1.5" rx="2"/>
<text x="62.75" y="458.00" text-anchor="end" font-family="IBM Plex Mono,monospace" font-size="8" fill="#b06af088">↺</text>
<rect x="68.38" y="449.00" width="54.25" height="170.50" fill="#52c97a22" stroke="#52c97a" stroke-width="1.5" rx="2"/>
<rect x="70.38" y="451.00" width="22.00" height="13" fill="#52c97a33" rx="2"/>
<text x="73.38" y="461.00" font-family="IBM Plex Mono,monospace" font-size="9" fill="#52c97a" font-weight="700">#9</text>
<text x="95.50" y="529.25" text-anchor="middle" dominant-baseline="middle" font-family="IBM Plex Mono,monospace" font-size="11.0" fill="#52c97a" font-weight="500">Shelf</text>
<text x="95.50" y="543.25" text-anchor="middle" dominant-baseline="middle" font-family="IBM Plex Mono,monospace" font-size="9.0" fill="#52c97a99">11.25"×34.5"</text>
<text x="119.62" y="458.00" text-anchor="end" font-family="IBM Plex Mono,monospace" font-size="8" fill="#52c97a88">↺</text>
<rect x="125.25" y="449.00" width="54.25" height="170.50" fill="#52c97a22" stroke="#52c97a" stroke-width="1.5" rx="2"/>
<rect x="127.25" y="451.00" width="22.00" height="13" fill="#52c97a33" rx="2"/>
<text x="130.25" y="461.00" font-family="IBM Plex Mono,monospace" font-size="9" fill="#52c97a" font-weight="700">#10</text>
<text x="152.38" y="529.25" text-anchor="middle" dominant-baseline="middle" font-family="IBM Plex Mono,monospace" font-size="11.0" fill="#52c97a" font-weight="500">Shelf</text>
<text x="152.38" y="543.25" text-anchor="middle" dominant-baseline="middle" font-family="IBM Plex Mono,monospace" font-size="9.0" fill="#52c97a99">11.25"×34.5"</text>
<text x="176.50" y="458.00" text-anchor="end" font-family="IBM Plex Mono,monospace" font-size="8" fill="#52c97a88">↺</text>
<rect x="182.12" y="449.00" width="54.25" height="170.50" fill="#52c97a22" stroke="#52c97a" stroke-width="1.5" rx="2"/>
<rect x="184.12" y="451.00" width="22.00" height="13" fill="#52c97a33" rx="2"/>
<text x="187.12" y="461.00" font-family="IBM Plex Mono,monospace" font-size="9" fill="#52c97a" font-weight="700">#11</text>
<text x="209.25" y="529.25" text-anchor="middle" dominant-baseline="middle" font-family="IBM Plex Mono,monospace" font-size="11.0" fill="#52c97a" font-weight="500">Shelf</text>
<text x="209.25" y="543.25" text-anchor="middle" dominant-baseline="middle" font-family="IBM Plex Mono,monospace" font-size="9.0" fill="#52c97a99">11.25"×34.5"</text>
<text x="233.38" y="458.00" text-anchor="end" font-family="IBM Plex Mono,monospace" font-size="8" fill="#52c97a88">↺</text>
<rect x="239.00" y="449.00" width="54.25" height="170.50" fill="#52c97a22" stroke="#52c97a" stroke-width="1.5" rx="2"/>
<rect x="241.00" y="451.00" width="22.00" height="13" fill="#52c97a33" rx="2"/>
<text x="244.00" y="461.00" font-family="IBM Plex Mono,monospace" font-size="9" fill="#52c97a" font-weight="700">#12</text>
<text x="266.12" y="529.25" text-anchor="middle" dominant-baseline="middle" font-family="IBM Plex Mono,monospace" font-size="11.0" fill="#52c97a" font-weight="500">Shelf</text>
<text x="266.12" y="543.25" text-anchor="middle" dominant-baseline="middle" font-family="IBM Plex Mono,monospace" font-size="9.0" fill="#52c97a99">11.25"×34.5"</text>
<text x="290.25" y="458.00" text-anchor="end" font-family="IBM Plex Mono,monospace" font-size="8" fill="#52c97a88">↺</text>
<rect x="295.88" y="449.00" width="15.50" height="170.50" fill="#ff7b5a22" stroke="#ff7b5a" stroke-width="1.5" rx="2"/>
<text x="308.38" y="458.00" text-anchor="end" font-family="IBM Plex Mono,monospace" font-size="8" fill="#ff7b5a88">↺</text>
<text x="268.0" y="703.0" text-anchor="middle" font-family="IBM Plex Mono,monospace" font-size="9" fill="#555">96"</text>
<text x="522.0" y="568.0" text-anchor="middle" dominant-baseline="middle" font-family="IBM Plex Mono,monospace" font-size="9" fill="#555" transform="rotate(90 522.0 568.0)">48"</text>
</svg>